<?xml version="1.0" encoding="UTF-8" standalone="no"?>
<!DOCTYPE svg PUBLIC "-//W3C//DTD SVG 1.1//EN"
 "http://www.w3.org/Graphics/SVG/1.1/DTD/svg11.dtd">
<!-- Generated by graphviz version 2.38.0 (20140413.2041)
 -->
<!-- Title: structs Pages: 1 -->
<svg width="316pt" height="294pt"
 viewBox="0.00 0.00 315.50 294.00" xmlns="http://www.w3.org/2000/svg" xmlns:xlink="http://www.w3.org/1999/xlink">
<g id="graph0" class="graph" transform="scale(1 1) rotate(0) translate(4 290)">
<title>structs</title>
<polygon fill="white" stroke="none" points="-4,4 -4,-290 311.5,-290 311.5,4 -4,4"/>
<!-- header -->
<g id="node1" class="node"><title>header</title>
<text text-anchor="middle" x="108.5" y="-264.3" font-family="Times,serif" font-size="14.00">header</text>
</g>
<!-- node1 -->
<g id="node2" class="node"><title>node1</title>
<polygon fill="none" stroke="black" points="84,-176.5 84,-212.5 215,-212.5 215,-176.5 84,-176.5"/>
<text text-anchor="middle" x="109" y="-190.8" font-family="Times,serif" font-size="14.00">node1</text>
<polyline fill="none" stroke="black" points="134,-176.5 134,-212.5 "/>
<text text-anchor="middle" x="154" y="-190.8" font-family="Times,serif" font-size="14.00">next</text>
<polyline fill="none" stroke="black" points="174,-176.5 174,-212.5 "/>
<text text-anchor="middle" x="194.5" y="-190.8" font-family="Times,serif" font-size="14.00">prev</text>
</g>
<!-- header&#45;&gt;node1 -->
<g id="edge1" class="edge"><title>header&#45;&gt;node1:p1</title>
<path fill="none" stroke="black" d="M108.5,-249.914C108.5,-241.139 108.5,-230.741 108.5,-223.22"/>
<polygon fill="black" stroke="black" points="112,-223 108.5,-213 105,-223 112,-223"/>
</g>
<!-- node2 -->
<g id="node3" class="node"><title>node2</title>
<polygon fill="none" stroke="black" points="120,-88.5 120,-124.5 251,-124.5 251,-88.5 120,-88.5"/>
<text text-anchor="middle" x="145" y="-102.8" font-family="Times,serif" font-size="14.00">node2</text>
<polyline fill="none" stroke="black" points="170,-88.5 170,-124.5 "/>
<text text-anchor="middle" x="190" y="-102.8" font-family="Times,serif" font-size="14.00">next</text>
<polyline fill="none" stroke="black" points="210,-88.5 210,-124.5 "/>
<text text-anchor="middle" x="230.5" y="-102.8" font-family="Times,serif" font-size="14.00">prev</text>
</g>
<!-- node1&#45;&gt;node2 -->
<g id="edge6" class="edge"><title>node1:p2&#45;&gt;node2:p1</title>
<path fill="none" stroke="red" stroke-dasharray="5,2" d="M154.5,-176C154.5,-176 149.334,-149.653 146.428,-134.833"/>
<polygon fill="red" stroke="red" points="149.859,-134.14 144.5,-125 142.99,-135.487 149.859,-134.14"/>
<text text-anchor="middle" x="159.5" y="-146.8" font-family="Times,serif" font-size="14.00">(1)</text>
</g>
<!-- node3 -->
<g id="node4" class="node"><title>node3</title>
<polygon fill="none" stroke="black" points="0,-0.5 0,-36.5 131,-36.5 131,-0.5 0,-0.5"/>
<text text-anchor="middle" x="25" y="-14.8" font-family="Times,serif" font-size="14.00">node3</text>
<polyline fill="none" stroke="black" points="50,-0.5 50,-36.5 "/>
<text text-anchor="middle" x="70" y="-14.8" font-family="Times,serif" font-size="14.00">next</text>
<polyline fill="none" stroke="black" points="90,-0.5 90,-36.5 "/>
<text text-anchor="middle" x="110.5" y="-14.8" font-family="Times,serif" font-size="14.00">prev</text>
</g>
<!-- node1&#45;&gt;node3 -->
<g id="edge2" class="edge"><title>node1:p3&#45;&gt;node3:p1</title>
<path fill="none" stroke="black" d="M216.5,-194.5C216.5,-194.5 301.5,-158 301.5,-158 301.5,-158 307.5,-125 307.5,-125 307.5,-125 307.5,-88 307.5,-88 307.5,-88 152.5,-55 152.5,-55 152.5,-55 64.7188,-42.6558 34.5439,-38.4124"/>
<polygon fill="black" stroke="black" points="34.89,-34.9267 24.5,-37 33.9151,-41.8585 34.89,-34.9267"/>
</g>
<!-- node1&#45;&gt;node3 -->
<g id="edge7" class="edge"><title>node1:p2&#45;&gt;node3:p1</title>
<path fill="none" stroke="red" d="M154.5,-176C154.5,-176 259.5,-125 259.5,-125 259.5,-125 259.5,-88 259.5,-88 259.5,-88 119.5,-70 119.5,-70 119.5,-70 57.9854,-48.6318 33.9563,-40.2848"/>
<polygon fill="red" stroke="red" points="35.0948,-36.9752 24.5,-37 32.7978,-43.5876 35.0948,-36.9752"/>
<text text-anchor="middle" x="267.5" y="-102.8" font-family="Times,serif" font-size="14.00">(2)</text>
</g>
<!-- node2&#45;&gt;node1 -->
<g id="edge4" class="edge"><title>node2:p3&#45;&gt;node1:p1</title>
<path fill="none" stroke="black" d="M230.5,-125C230.5,-125 128.5,-143 128.5,-143 128.5,-143 119.68,-157.552 113.755,-167.33"/>
<polygon fill="black" stroke="black" points="110.69,-165.634 108.5,-176 116.676,-169.262 110.69,-165.634"/>
</g>
<!-- node2&#45;&gt;node3 -->
<g id="edge3" class="edge"><title>node2:p2&#45;&gt;node3:p1</title>
<path fill="none" stroke="black" d="M190.5,-88C190.5,-88 24.5,-70 24.5,-70 24.5,-70 24.5,-56.7851 24.5,-47.0804"/>
<polygon fill="black" stroke="black" points="28.0001,-47 24.5,-37 21.0001,-47 28.0001,-47"/>
</g>
<!-- node3&#45;&gt;node1 -->
<g id="edge5" class="edge"><title>node3:p2&#45;&gt;node1:p1</title>
<path fill="none" stroke="black" d="M70.5,-37C70.5,-37 63.5,-88 63.5,-88 63.5,-88 63.5,-125 63.5,-125 63.5,-125 71.5,-158 71.5,-158 71.5,-158 76.3508,-174.096 79.6099,-184.91"/>
<polygon fill="black" stroke="black" points="76.2633,-185.935 82.5,-194.5 82.9655,-183.915 76.2633,-185.935"/>
</g>
<!-- node3&#45;&gt;node1 -->
<g id="edge9" class="edge"><title>node3:p3&#45;&gt;node1:p1</title>
<path fill="none" stroke="red" d="M110.5,-37C110.5,-37 94.5,-88 94.5,-88 94.5,-88 94.5,-125 94.5,-125 94.5,-125 101.732,-151.347 105.801,-166.167"/>
<polygon fill="red" stroke="red" points="102.478,-167.283 108.5,-176 109.228,-165.43 102.478,-167.283"/>
<text text-anchor="middle" x="102.5" y="-102.8" font-family="Times,serif" font-size="14.00">(4)</text>
</g>
<!-- node3&#45;&gt;node2 -->
<g id="edge8" class="edge"><title>node3:p3&#45;&gt;node2:p1</title>
<path fill="none" stroke="red" stroke-dasharray="5,2" d="M110.5,-37C110.5,-37 129.229,-65.093 138.886,-79.5784"/>
<polygon fill="red" stroke="red" points="136.041,-81.6209 144.5,-88 141.865,-77.738 136.041,-81.6209"/>
<text text-anchor="middle" x="140.5" y="-58.8" font-family="Times,serif" font-size="14.00">(3)</text>
</g>
</g>
</svg>
