<?xml version="1.0" encoding="UTF-8" standalone="no"?>
<!DOCTYPE svg PUBLIC "-//W3C//DTD SVG 1.1//EN"
 "http://www.w3.org/Graphics/SVG/1.1/DTD/svg11.dtd">
<!-- Generated by graphviz version 2.38.0 (20140413.2041)
 -->
<!-- Title: structs Pages: 1 -->
<svg width="169pt" height="263pt"
 viewBox="0.00 0.00 168.50 263.00" xmlns="http://www.w3.org/2000/svg" xmlns:xlink="http://www.w3.org/1999/xlink">
<g id="graph0" class="graph" transform="scale(1 1) rotate(0) translate(4 259)">
<title>structs</title>
<polygon fill="white" stroke="none" points="-4,4 -4,-259 164.5,-259 164.5,4 -4,4"/>
<!-- header -->
<g id="node1" class="node"><title>header</title>
<text text-anchor="middle" x="46.5" y="-233.3" font-family="Times,serif" font-size="14.00">header</text>
</g>
<!-- node1 -->
<g id="node2" class="node"><title>node1</title>
<polygon fill="none" stroke="black" points="22,-146.5 22,-182.5 153,-182.5 153,-146.5 22,-146.5"/>
<text text-anchor="middle" x="47" y="-160.8" font-family="Times,serif" font-size="14.00">node1</text>
<polyline fill="none" stroke="black" points="72,-146.5 72,-182.5 "/>
<text text-anchor="middle" x="92" y="-160.8" font-family="Times,serif" font-size="14.00">next</text>
<polyline fill="none" stroke="black" points="112,-146.5 112,-182.5 "/>
<text text-anchor="middle" x="132.5" y="-160.8" font-family="Times,serif" font-size="14.00">prev</text>
</g>
<!-- header&#45;&gt;node1 -->
<g id="edge1" class="edge"><title>header&#45;&gt;node1:p1</title>
<path fill="none" stroke="black" d="M46.5,-218.939C46.5,-210.466 46.5,-200.512 46.5,-193.231"/>
<polygon fill="black" stroke="black" points="50.0001,-193 46.5,-183 43.0001,-193 50.0001,-193"/>
</g>
<!-- node2 -->
<g id="node3" class="node"><title>node2</title>
<polygon fill="none" stroke="black" points="20,-73.5 20,-109.5 151,-109.5 151,-73.5 20,-73.5"/>
<text text-anchor="middle" x="45" y="-87.8" font-family="Times,serif" font-size="14.00">node2</text>
<polyline fill="none" stroke="black" points="70,-73.5 70,-109.5 "/>
<text text-anchor="middle" x="90" y="-87.8" font-family="Times,serif" font-size="14.00">next</text>
<polyline fill="none" stroke="black" points="110,-73.5 110,-109.5 "/>
<text text-anchor="middle" x="130.5" y="-87.8" font-family="Times,serif" font-size="14.00">prev</text>
</g>
<!-- node1&#45;&gt;node2 -->
<g id="edge2" class="edge"><title>node1:p2&#45;&gt;node2:p1</title>
<path fill="none" stroke="black" d="M92.5,-146C92.5,-146 66.6133,-126.585 52.861,-116.271"/>
<polygon fill="black" stroke="black" points="54.6,-113.2 44.5,-110 50.4,-118.8 54.6,-113.2"/>
</g>
<!-- node3 -->
<g id="node4" class="node"><title>node3</title>
<polygon fill="none" stroke="black" points="0,-0.5 0,-36.5 131,-36.5 131,-0.5 0,-0.5"/>
<text text-anchor="middle" x="25" y="-14.8" font-family="Times,serif" font-size="14.00">node3</text>
<polyline fill="none" stroke="black" points="50,-0.5 50,-36.5 "/>
<text text-anchor="middle" x="70" y="-14.8" font-family="Times,serif" font-size="14.00">next</text>
<polyline fill="none" stroke="black" points="90,-0.5 90,-36.5 "/>
<text text-anchor="middle" x="110.5" y="-14.8" font-family="Times,serif" font-size="14.00">prev</text>
</g>
<!-- node1&#45;&gt;node3 -->
<g id="edge3" class="edge"><title>node1:p3&#45;&gt;node3:p1</title>
<path fill="none" stroke="black" d="M132.5,-146C132.5,-146 160.5,-110 160.5,-110 160.5,-110 160.5,-73 160.5,-73 160.5,-73 65.4644,-47.8435 34.2808,-39.589"/>
<polygon fill="black" stroke="black" points="35.0627,-36.1755 24.5,-37 33.2714,-42.9425 35.0627,-36.1755"/>
</g>
<!-- node2&#45;&gt;node1 -->
<g id="edge5" class="edge"><title>node2:p3&#45;&gt;node1:p1</title>
<path fill="none" stroke="black" d="M130.5,-110C130.5,-110 77.6808,-132.637 55.8104,-142.01"/>
<polygon fill="black" stroke="black" points="54.3127,-138.844 46.5,-146 57.0702,-145.278 54.3127,-138.844"/>
</g>
<!-- node2&#45;&gt;node3 -->
<g id="edge4" class="edge"><title>node2:p2&#45;&gt;node3:p1</title>
<path fill="none" stroke="black" d="M90.5,-73C90.5,-73 51.4162,-51.6816 33.4011,-41.8551"/>
<polygon fill="black" stroke="black" points="34.955,-38.7159 24.5,-37 31.603,-44.8612 34.955,-38.7159"/>
</g>
<!-- node3&#45;&gt;node1 -->
<g id="edge6" class="edge"><title>node3:p2&#45;&gt;node1:p1</title>
<path fill="none" stroke="black" d="M70.5,-37C70.5,-37 10.5,-73 10.5,-73 10.5,-73 10.5,-110 10.5,-110 10.5,-110 28.6956,-128.196 39.2149,-138.715"/>
<polygon fill="black" stroke="black" points="36.954,-141.404 46.5,-146 41.9038,-136.454 36.954,-141.404"/>
</g>
<!-- node3&#45;&gt;node2 -->
<g id="edge7" class="edge"><title>node3:p3&#45;&gt;node2:p1</title>
<path fill="none" stroke="black" d="M110.5,-37C110.5,-37 71.4162,-58.3184 53.4011,-68.1449"/>
<polygon fill="black" stroke="black" points="51.603,-65.1388 44.5,-73 54.955,-71.2841 51.603,-65.1388"/>
</g>
</g>
</svg>
