<?xml version="1.0" encoding="UTF-8" standalone="no"?>
<!DOCTYPE svg PUBLIC "-//W3C//DTD SVG 1.1//EN"
 "http://www.w3.org/Graphics/SVG/1.1/DTD/svg11.dtd">
<!-- Generated by graphviz version 2.38.0 (20140413.2041)
 -->
<!-- Title: structs Pages: 1 -->
<svg width="326pt" height="382pt"
 viewBox="0.00 0.00 326.00 382.00" xmlns="http://www.w3.org/2000/svg" xmlns:xlink="http://www.w3.org/1999/xlink">
<g id="graph0" class="graph" transform="scale(1 1) rotate(0) translate(4 378)">
<title>structs</title>
<polygon fill="white" stroke="none" points="-4,4 -4,-378 322,-378 322,4 -4,4"/>
<!-- header -->
<g id="node1" class="node"><title>header</title>
<text text-anchor="middle" x="67" y="-352.3" font-family="Times,serif" font-size="14.00">header</text>
</g>
<!-- node1 -->
<g id="node2" class="node"><title>node1</title>
<polygon fill="none" stroke="black" points="111.5,-250.5 111.5,-286.5 242.5,-286.5 242.5,-250.5 111.5,-250.5"/>
<text text-anchor="middle" x="136.5" y="-264.8" font-family="Times,serif" font-size="14.00">node1</text>
<polyline fill="none" stroke="black" points="161.5,-250.5 161.5,-286.5 "/>
<text text-anchor="middle" x="181.5" y="-264.8" font-family="Times,serif" font-size="14.00">next</text>
<polyline fill="none" stroke="black" points="201.5,-250.5 201.5,-286.5 "/>
<text text-anchor="middle" x="222" y="-264.8" font-family="Times,serif" font-size="14.00">prev</text>
</g>
<!-- header&#45;&gt;node1 -->
<g id="edge11" class="edge"><title>header&#45;&gt;node1:p1</title>
<path fill="none" stroke="red" stroke-dasharray="5,2" d="M84.4116,-337.841C98.784,-323.677 118.45,-304.296 128.86,-294.037"/>
<polygon fill="red" stroke="red" points="131.334,-296.512 136,-287 126.421,-291.526 131.334,-296.512"/>
<text text-anchor="middle" x="126" y="-308.8" font-family="Times,serif" font-size="14.00">(6)</text>
</g>
<!-- node4 -->
<g id="node5" class="node"><title>node4</title>
<polygon fill="none" stroke="black" points="0,-0.5 0,-36.5 150,-36.5 150,-0.5 0,-0.5"/>
<text text-anchor="middle" x="34.5" y="-14.8" font-family="Times,serif" font-size="14.00">new node</text>
<polyline fill="none" stroke="black" points="69,-0.5 69,-36.5 "/>
<text text-anchor="middle" x="89" y="-14.8" font-family="Times,serif" font-size="14.00">next</text>
<polyline fill="none" stroke="black" points="109,-0.5 109,-36.5 "/>
<text text-anchor="middle" x="129.5" y="-14.8" font-family="Times,serif" font-size="14.00">prev</text>
</g>
<!-- header&#45;&gt;node4 -->
<g id="edge12" class="edge"><title>header&#45;&gt;node4:p1</title>
<path fill="none" stroke="red" d="M60.1196,-337.698C50.1847,-312.714 33,-269.5 33,-269.5 33,-269.5 33,-269.5 33,-105.5 33,-105.5 33.5743,-66.1618 33.8524,-47.1074"/>
<polygon fill="red" stroke="red" points="37.3536,-47.0501 34,-37 30.3543,-46.9478 37.3536,-47.0501"/>
<text text-anchor="middle" x="41" y="-190.8" font-family="Times,serif" font-size="14.00">(7)</text>
</g>
<!-- node2 -->
<g id="node3" class="node"><title>node2</title>
<polygon fill="none" stroke="black" points="157.5,-176.5 157.5,-212.5 288.5,-212.5 288.5,-176.5 157.5,-176.5"/>
<text text-anchor="middle" x="182.5" y="-190.8" font-family="Times,serif" font-size="14.00">node2</text>
<polyline fill="none" stroke="black" points="207.5,-176.5 207.5,-212.5 "/>
<text text-anchor="middle" x="227.5" y="-190.8" font-family="Times,serif" font-size="14.00">next</text>
<polyline fill="none" stroke="black" points="247.5,-176.5 247.5,-212.5 "/>
<text text-anchor="middle" x="268" y="-190.8" font-family="Times,serif" font-size="14.00">prev</text>
</g>
<!-- node1&#45;&gt;node2 -->
<g id="edge1" class="edge"><title>node1:p2&#45;&gt;node2:p1</title>
<path fill="none" stroke="black" d="M182,-250C182,-250 182,-234.065 182,-223.11"/>
<polygon fill="black" stroke="black" points="185.5,-223 182,-213 178.5,-223 185.5,-223"/>
</g>
<!-- node3 -->
<g id="node4" class="node"><title>node3</title>
<polygon fill="none" stroke="black" points="105.5,-88.5 105.5,-124.5 236.5,-124.5 236.5,-88.5 105.5,-88.5"/>
<text text-anchor="middle" x="130.5" y="-102.8" font-family="Times,serif" font-size="14.00">node3</text>
<polyline fill="none" stroke="black" points="155.5,-88.5 155.5,-124.5 "/>
<text text-anchor="middle" x="175.5" y="-102.8" font-family="Times,serif" font-size="14.00">next</text>
<polyline fill="none" stroke="black" points="195.5,-88.5 195.5,-124.5 "/>
<text text-anchor="middle" x="216" y="-102.8" font-family="Times,serif" font-size="14.00">prev</text>
</g>
<!-- node1&#45;&gt;node3 -->
<g id="edge9" class="edge"><title>node1:p3&#45;&gt;node3:p1</title>
<path fill="none" stroke="red" stroke-dasharray="5,2" d="M244,-268.5C244,-268.5 298,-213 298,-213 298,-213 298,-176 298,-176 298,-176 176.173,-139.017 140.006,-128.038"/>
<polygon fill="red" stroke="red" points="140.586,-124.556 130,-125 138.552,-131.254 140.586,-124.556"/>
<text text-anchor="middle" x="306" y="-190.8" font-family="Times,serif" font-size="14.00">(5)</text>
</g>
<!-- node1&#45;&gt;node4 -->
<g id="edge10" class="edge"><title>node1:p3&#45;&gt;node4:p1</title>
<path fill="none" stroke="red" d="M244,-268.5C244,-268.5 293,-232 293,-232 293,-232 318,-213 318,-213 318,-213 318,-176 318,-176 318,-176 245,-88 245,-88 245,-88 182,-55 182,-55 182,-55 77.61,-42.3039 44.1726,-38.2372"/>
<polygon fill="red" stroke="red" points="44.3494,-34.733 34,-37 43.5043,-41.6818 44.3494,-34.733"/>
<text text-anchor="middle" x="310" y="-146.8" font-family="Times,serif" font-size="14.00">(6)</text>
</g>
<!-- node2&#45;&gt;node1 -->
<g id="edge3" class="edge"><title>node2:p3&#45;&gt;node1:p1</title>
<path fill="none" stroke="black" d="M268,-213C268,-213 178,-231 178,-231 178,-231 157.695,-240.186 145.321,-245.783"/>
<polygon fill="black" stroke="black" points="143.668,-242.689 136,-250 146.554,-249.067 143.668,-242.689"/>
</g>
<!-- node2&#45;&gt;node3 -->
<g id="edge2" class="edge"><title>node2:p2&#45;&gt;node3:p1</title>
<path fill="none" stroke="black" d="M228,-176C228,-176 163.305,-142.332 139.044,-129.707"/>
<polygon fill="black" stroke="black" points="140.486,-126.512 130,-125 137.255,-132.721 140.486,-126.512"/>
</g>
<!-- node3&#45;&gt;node1 -->
<g id="edge6" class="edge"><title>node3:p2&#45;&gt;node1:p1</title>
<path fill="none" stroke="red" stroke-dasharray="5,2" d="M176,-125C176,-125 132,-176 132,-176 132,-176 132,-213 132,-213 132,-213 133.723,-228.935 134.907,-239.89"/>
<polygon fill="red" stroke="red" points="131.445,-240.434 136,-250 138.405,-239.682 131.445,-240.434"/>
<text text-anchor="middle" x="140" y="-190.8" font-family="Times,serif" font-size="14.00">(2)</text>
</g>
<!-- node3&#45;&gt;node2 -->
<g id="edge4" class="edge"><title>node3:p3&#45;&gt;node2:p1</title>
<path fill="none" stroke="black" d="M238,-106.5C238,-106.5 237,-125 237,-125 237,-125 204.76,-154.895 189.648,-168.909"/>
<polygon fill="black" stroke="black" points="186.953,-166.634 182,-176 191.713,-171.767 186.953,-166.634"/>
</g>
<!-- node3&#45;&gt;node4 -->
<g id="edge7" class="edge"><title>node3:p2&#45;&gt;node4:p1</title>
<path fill="none" stroke="red" d="M176,-88C176,-88 150,-55 150,-55 150,-55 71.9421,-42.8876 43.8901,-38.5347"/>
<polygon fill="red" stroke="red" points="44.4185,-35.0748 34,-37 43.345,-41.9921 44.4185,-35.0748"/>
<text text-anchor="middle" x="170" y="-58.8" font-family="Times,serif" font-size="14.00">(3)</text>
</g>
<!-- node4&#45;&gt;node1 -->
<g id="edge5" class="edge"><title>node4:p2&#45;&gt;node1:p1</title>
<path fill="none" stroke="red" d="M89,-37C89,-37 96,-125 96,-125 96,-125 105.783,-225.277 108.993,-258.18"/>
<polygon fill="red" stroke="red" points="105.545,-258.887 110,-268.5 112.512,-258.207 105.545,-258.887"/>
<text text-anchor="middle" x="108" y="-146.8" font-family="Times,serif" font-size="14.00">(1)</text>
</g>
<!-- node4&#45;&gt;node3 -->
<g id="edge8" class="edge"><title>node4:p3&#45;&gt;node3:p1</title>
<path fill="none" stroke="red" d="M130,-37C130,-37 130,-62.777 130,-77.6794"/>
<polygon fill="red" stroke="red" points="126.5,-78 130,-88 133.5,-78 126.5,-78"/>
<text text-anchor="middle" x="138" y="-58.8" font-family="Times,serif" font-size="14.00">(4)</text>
</g>
</g>
</svg>
