<svg width="600" height="300" version="1.1" xmlns="http://www.w3.org/2000/svg"><polyline style="fill:white;stroke:red;stroke-width:2" points=" 0,150  1,147  2,145  3,142  3,140  4,137  5,134  6,132  7,129  7,127  8,124  9,121  10,119  11,116  12,114  13,111  13,109  14,106  15,104  16,101  17,99  18,96  18,94  19,91  20,89  21,87  22,84  23,82  23,80  24,77  25,75  26,73  27,71  28,68  28,66  29,64  30,62  31,60  32,58  33,56  33,54  34,52  35,50  36,48  37,46  38,44  38,42  39,40  40,39  41,37  42,35  43,33  43,32  44,30  45,29  46,27  47,26  48,24  48,23  49,21  50,20  51,19  52,18  53,16  53,15  54,14  55,13  56,12  57,11  58,10  58,9  59,8  60,7  61,7  62,6  63,5  63,4  64,4  65,3  66,3  67,2  68,2  68,1  69,1  70,1  71,1  72,0  73,0  73,0  74,0  75,0  76,0  77,0  78,0  78,0  79,1  80,1  81,1  82,1  83,2  83,2  84,3  85,3  86,4  87,4  88,5  88,6  89,7  90,7  91,8  92,9  93,10  93,11  94,12  95,13  96,14  97,15  98,16  98,18  99,19  100,20  101,21  102,23  103,24  103,26  104,27  105,29  106,30  107,32  108,33  108,35  109,37  110,39  111,40  112,42  112,44  113,46  114,48  115,50  116,52  117,54  118,56  118,58  119,60  120,62  121,64  122,66  123,68  123,71  124,73  125,75  126,77  127,80  128,82  128,84  129,87  130,89  131,91  132,94  133,96  133,99  134,101  135,104  136,106  137,109  138,111  138,114  139,116  140,119  141,121  142,124  143,127  143,129  144,132  145,134  146,137  147,140  148,142  148,145  149,147  150,150  151,153  152,155  153,158  153,160  154,163  155,166  156,168  157,171  158,173  158,176  159,179  160,181  161,184  162,186  163,189  163,191  164,194  165,196  166,199  167,201  168,204  168,206  169,209  170,211  171,213  172,216  173,218  173,220  174,223  175,225  176,227  177,229  178,232  178,234  179,236  180,238  181,240  182,242  183,244  183,246  184,248  185,250  186,252  187,254  188,256  188,258  189,260  190,261  191,263  192,265  192,267  193,268  194,270  195,271  196,273  197,274  198,276  198,277  199,279  200,280  201,281  202,282  203,284  203,285  204,286  205,287  206,288  207,289  208,290  208,291  209,292  210,293  211,293  212,294  213,295  213,296  214,296  215,297  216,297  217,298  218,298  218,299  219,299  220,299  221,299  222,300  223,300  223,300  224,300  225,300  226,300  227,300  228,300  228,300  229,299  230,299  231,299  232,299  232,298  233,298  234,297  235,297  236,296  237,296  238,295  238,294  239,293  240,293  241,292  242,291  243,290  243,289  244,288  245,287  246,286  247,285  247,284  248,282  249,281  250,280  251,279  252,277  253,276  253,274  254,273  255,271  256,270  257,268  258,267  258,265  259,263  260,261  261,260  262,258  263,256  263,254  264,252  265,250  266,248  267,246  268,244  268,242  269,240  270,238  271,236  272,234  273,232  273,229  274,227  275,225  276,223  277,220  278,218  278,216  279,213  280,211  281,209  282,206  283,204  283,201  284,199  285,196  286,194  287,191  288,189  288,186  289,184  290,181  291,179  292,176  293,173  293,171  294,168  295,166  296,163  297,160  298,158  298,155  299,153  300,150 "/></svg>