<?xml version="1.0" encoding="UTF-8" standalone="no"?>
<svg
   xmlns:dc="http://purl.org/dc/elements/1.1/"
   xmlns:cc="http://creativecommons.org/ns#"
   xmlns:rdf="http://www.w3.org/1999/02/22-rdf-syntax-ns#"
   xmlns:svg="http://www.w3.org/2000/svg"
   xmlns="http://www.w3.org/2000/svg"
   viewBox="0 0 394.88751 201.2375"
   height="201.2375"
   width="394.88751"
   xml:space="preserve"
   version="1.1"
   id="svg2"><metadata
     id="metadata8"><rdf:RDF><cc:Work
         rdf:about=""><dc:format>image/svg+xml</dc:format><dc:type
           rdf:resource="http://purl.org/dc/dcmitype/StillImage" /></cc:Work></rdf:RDF></metadata><defs
     id="defs6" /><g
     transform="matrix(1.25,0,0,-1.25,0,201.2375)"
     id="g10"><g
       transform="translate(72,88.99)"
       id="g12"><g
         transform="translate(-61.68,-114.77)"
         id="g14"><g
           id="g16"><g
             id="g18"><g
               id="g20"><path
                 id="path22"
                 style="fill:#808080;fill-opacity:1;fill-rule:nonzero;stroke:#000000;stroke-width:0.70864999;stroke-linecap:butt;stroke-linejoin:miter;stroke-miterlimit:10;stroke-dasharray:none;stroke-opacity:1"
                 d="m 56.69362,85.04042 0,70.86702 226.77448,0 0,-70.86702 -226.77448,0 z" /><g
                 id="g24" /><g
                 id="g26" /></g><g
               id="g28"><path
                 id="path30"
                 style="fill:#bfbfbf;fill-opacity:1;fill-rule:nonzero;stroke:#000000;stroke-width:0.70864999;stroke-linecap:butt;stroke-linejoin:miter;stroke-miterlimit:10;stroke-dasharray:none;stroke-opacity:1"
                 d="m 295.27896,120.47392 c 0,19.56963 -5.28783,35.4335 -11.81086,35.4335 -6.52306,0 -11.81089,-15.86387 -11.81089,-35.4335 0,-19.56962 5.28783,-35.4335 11.81089,-35.4335 6.52303,0 11.81086,15.86388 11.81086,35.4335 z" /></g><g
               id="g32"><path
                 id="path34"
                 style="fill:#808080;fill-opacity:1;fill-rule:nonzero;stroke:#000000;stroke-width:0.3985;stroke-linecap:butt;stroke-linejoin:miter;stroke-miterlimit:10;stroke-dasharray:2.98883, 2.98883;stroke-dashoffset:0;stroke-opacity:1"
                 d="m 68.50449,120.47392 c 0,19.56963 -5.28783,35.4335 -11.81087,35.4335 -6.52306,0 -11.81088,-15.86387 -11.81088,-35.4335 0,-19.56962 5.28782,-35.4335 11.81088,-35.4335 6.52304,0 11.81087,15.86388 11.81087,35.4335 z" /></g><g
               id="g36"><path
                 id="path38"
                 style="fill:none;stroke:#000000;stroke-width:0.70864999;stroke-linecap:butt;stroke-linejoin:miter;stroke-miterlimit:10;stroke-dasharray:none;stroke-opacity:1"
                 d="m 56.69362,155.90742 c -6.52306,0 -11.81088,-15.86387 -11.81088,-35.4335 0,-19.56962 5.28782,-35.4335 11.81088,-35.4335" /><g
                 id="g40"><g
                   id="g42"><g
                     transform="scale(-1,-1)"
                     id="g44"><g
                       id="g46" /><g
                       transform="matrix(-1,0,0,-1,-61.68,-114.77)"
                       id="g48"><g
                         id="g50" /><g
                         transform="translate(54.36,124.15)"
                         id="g52"><text
                           id="text54"
                           style="font-style:italic;font-variant:normal;font-weight:normal;font-size:9.9630003px;font-family:CMMI10;-inkscape-font-specification:CMMI10;writing-mode:lr-tb;fill:#000000;fill-opacity:1;fill-rule:nonzero;stroke:none"
                           transform="matrix(1,0,0,-1,-61.68,-114.77)"><tspan
                             id="tspan56"
                             y="0"
                             x="0">s</tspan></text>
</g><g
                         transform="translate(-61.68,-114.77)"
                         id="g58" /></g></g></g></g></g><g
               id="g60"><path
                 id="path62"
                 style="fill:#808080;fill-opacity:1;fill-rule:nonzero;stroke:#000000;stroke-width:0.3985;stroke-linecap:butt;stroke-linejoin:miter;stroke-miterlimit:10;stroke-dasharray:2.98883, 2.98883;stroke-dashoffset:0;stroke-opacity:1"
                 d="m 167.7183,120.47392 c 0,19.56963 -5.28782,35.4335 -11.81086,35.4335 -6.52306,0 -11.81087,-15.86387 -11.81087,-35.4335 0,-19.56962 5.28781,-35.4335 11.81087,-35.4335 6.52304,0 11.81086,15.86388 11.81086,35.4335 z" /></g><g
               id="g64"><path
                 id="path66"
                 style="fill:none;stroke:#000000;stroke-width:0.70864999;stroke-linecap:butt;stroke-linejoin:miter;stroke-miterlimit:10;stroke-dasharray:none;stroke-opacity:1"
                 d="m 155.90744,155.90742 c -6.52306,0 -11.81087,-15.86387 -11.81087,-35.4335 0,-19.56962 5.28781,-35.4335 11.81087,-35.4335" /><g
                 id="g68"><g
                   id="g70"><g
                     transform="scale(-1,-1)"
                     id="g72"><g
                       id="g74" /><g
                       transform="matrix(-1,0,0,-1,-61.68,-114.77)"
                       id="g76"><g
                         id="g78" /><g
                         transform="translate(152.17,124.15)"
                         id="g80"><text
                           id="text82"
                           style="font-style:italic;font-variant:normal;font-weight:normal;font-size:9.9630003px;font-family:CMMI10;-inkscape-font-specification:CMMI10;writing-mode:lr-tb;fill:#000000;fill-opacity:1;fill-rule:nonzero;stroke:none"
                           transform="matrix(1,0,0,-1,-61.68,-114.77)"><tspan
                             id="tspan84"
                             y="0"
                             x="0">A</tspan></text>
</g><g
                         transform="translate(-61.68,-114.77)"
                         id="g86" /></g></g></g></g></g><g
               id="g88"><path
                 id="path90"
                 style="fill:#808080;fill-opacity:1;fill-rule:nonzero;stroke:#000000;stroke-width:0.3985;stroke-linecap:butt;stroke-linejoin:miter;stroke-miterlimit:10;stroke-dasharray:2.98883, 2.98883;stroke-dashoffset:0;stroke-opacity:1"
                 d="m 196.06512,120.47392 c 0,19.56963 -5.28782,35.4335 -11.81088,35.4335 -6.52304,0 -11.81087,-15.86387 -11.81087,-35.4335 0,-19.56962 5.28783,-35.4335 11.81087,-35.4335 6.52306,0 11.81088,15.86388 11.81088,35.4335 z" /></g><g
               id="g92"><path
                 id="path94"
                 style="fill:none;stroke:#000000;stroke-width:0.70864999;stroke-linecap:butt;stroke-linejoin:miter;stroke-miterlimit:10;stroke-dasharray:none;stroke-opacity:1"
                 d="m 184.25424,155.90742 c -6.52304,0 -11.81087,-15.86387 -11.81087,-35.4335 0,-19.56962 5.28783,-35.4335 11.81087,-35.4335" /><g
                 id="g96"><g
                   id="g98"><g
                     transform="scale(-1,-1)"
                     id="g100"><g
                       id="g102" /><g
                       transform="matrix(-1,0,0,-1,-61.68,-114.77)"
                       id="g104"><g
                         id="g106" /><g
                         transform="translate(180.32,124.15)"
                         id="g108"><text
                           id="text110"
                           style="font-style:italic;font-variant:normal;font-weight:normal;font-size:9.9630003px;font-family:CMMI10;-inkscape-font-specification:CMMI10;writing-mode:lr-tb;fill:#000000;fill-opacity:1;fill-rule:nonzero;stroke:none"
                           transform="matrix(1,0,0,-1,-61.68,-114.77)"><tspan
                             id="tspan112"
                             y="0"
                             x="0">O</tspan></text>
</g><g
                         transform="translate(-61.68,-114.77)"
                         id="g114" /></g></g></g></g></g><path
               id="path116"
               style="fill:none;stroke:#000000;stroke-width:0.3985;stroke-linecap:butt;stroke-linejoin:miter;stroke-miterlimit:10;stroke-dasharray:none;stroke-opacity:1"
               d="m 56.69362,155.90744 0,14.1734 0,4.98139" /><g
               id="g118" /><path
               id="path120"
               style="fill:none;stroke:#000000;stroke-width:0.3985;stroke-linecap:butt;stroke-linejoin:miter;stroke-miterlimit:10;stroke-dasharray:none;stroke-opacity:1"
               d="m 283.4681,155.90744 0,14.1734 0,4.98139" /><g
               id="g122" /><g
               id="g124"><path
                 id="path126"
                 style="fill:none;stroke:#000000;stroke-width:0.3985;stroke-linecap:butt;stroke-linejoin:miter;stroke-miterlimit:10;stroke-dasharray:none;stroke-opacity:1"
                 d="m 60.28015,170.08084 219.6014,0" /><g
                 transform="matrix(-1,0,0,-1,60.28015,170.08084)"
                 id="g128"><g
                   id="g130"><path
                     id="path132"
                     style="fill:#000000;fill-opacity:1;fill-rule:nonzero;stroke:none"
                     d="M 3.58653,0 C 2.52383,0.19925 0.797,0.797 -0.3985,1.49438 l 0,-2.98876 C 0.797,-0.797 2.52383,-0.19925 3.58653,0" /></g></g><g
                 transform="translate(279.88155,170.08084)"
                 id="g134"><g
                   id="g136"><path
                     id="path138"
                     style="fill:#000000;fill-opacity:1;fill-rule:nonzero;stroke:none"
                     d="M 3.58653,0 C 2.52383,0.19925 0.797,0.797 -0.3985,1.49438 l 0,-2.98876 C 0.797,-0.797 2.52383,-0.19925 3.58653,0" /></g></g><g
                 id="g140"><g
                   id="g142"><path
                     id="path144"
                     style="fill:#ffffff;fill-opacity:1;fill-rule:nonzero;stroke:none"
                     d="m 162.74751,163.35634 14.66667,0 0,13.449 -14.66667,0 0,-13.449 z" /></g><g
                   id="g146"><g
                     transform="scale(-1,-1)"
                     id="g148"><g
                       id="g150" /><g
                       transform="matrix(-1,0,0,-1,-61.68,-114.77)"
                       id="g152"><g
                         id="g154" /><g
                         transform="translate(166.07,166.68)"
                         id="g156"><text
                           id="text158"
                           style="font-style:italic;font-variant:normal;font-weight:normal;font-size:9.9630003px;font-family:CMMI10;-inkscape-font-specification:CMMI10;writing-mode:lr-tb;fill:#000000;fill-opacity:1;fill-rule:nonzero;stroke:none"
                           transform="matrix(1,0,0,-1,-61.68,-114.77)"><tspan
                             id="tspan160"
                             y="0"
                             x="0">V</tspan></text>
</g><g
                         transform="translate(-61.68,-114.77)"
                         id="g162" /></g></g></g></g></g><path
               id="path164"
               style="fill:none;stroke:#000000;stroke-width:0.3985;stroke-linecap:butt;stroke-linejoin:miter;stroke-miterlimit:10;stroke-dasharray:none;stroke-opacity:1"
               d="m 56.69362,85.04042 0,-42.5202 0,-4.98139" /><g
               id="g166" /><path
               id="path168"
               style="fill:none;stroke:#000000;stroke-width:0.3985;stroke-linecap:butt;stroke-linejoin:miter;stroke-miterlimit:10;stroke-dasharray:none;stroke-opacity:1"
               d="m 283.4681,85.04042 0,-42.5202 0,-4.98139" /><g
               id="g170" /><g
               id="g172"><path
                 id="path174"
                 style="fill:none;stroke:#000000;stroke-width:0.3985;stroke-linecap:butt;stroke-linejoin:miter;stroke-miterlimit:10;stroke-dasharray:none;stroke-opacity:1"
                 d="m 60.28015,42.52022 219.6014,0" /><g
                 transform="matrix(-1,0,0,-1,60.28015,42.52022)"
                 id="g176"><g
                   id="g178"><path
                     id="path180"
                     style="fill:#000000;fill-opacity:1;fill-rule:nonzero;stroke:none"
                     d="M 3.58653,0 C 2.52383,0.19925 0.797,0.797 -0.3985,1.49438 l 0,-2.98876 C 0.797,-0.797 2.52383,-0.19925 3.58653,0" /></g></g><g
                 transform="translate(279.88155,42.52022)"
                 id="g182"><g
                   id="g184"><path
                     id="path186"
                     style="fill:#000000;fill-opacity:1;fill-rule:nonzero;stroke:none"
                     d="M 3.58653,0 C 2.52383,0.19925 0.797,0.797 -0.3985,1.49438 l 0,-2.98876 C 0.797,-0.797 2.52383,-0.19925 3.58653,0" /></g></g><g
                 id="g188"><g
                   id="g190"><path
                     id="path192"
                     style="fill:#ffffff;fill-opacity:1;fill-rule:nonzero;stroke:none"
                     d="m 165.17592,35.74036 9.80986,0 0,13.55971 -9.80986,0 0,-13.55971 z" /></g><g
                   id="g194"><g
                     transform="scale(-1,-1)"
                     id="g196"><g
                       id="g198" /><g
                       transform="matrix(-1,0,0,-1,-61.68,-114.77)"
                       id="g200"><g
                         id="g202" /><g
                         transform="translate(168.5,39.06)"
                         id="g204"><text
                           id="text206"
                           style="font-style:italic;font-variant:normal;font-weight:normal;font-size:9.9630003px;font-family:CMMI10;-inkscape-font-specification:CMMI10;writing-mode:lr-tb;fill:#000000;fill-opacity:1;fill-rule:nonzero;stroke:none"
                           transform="matrix(1,0,0,-1,-61.68,-114.77)"><tspan
                             id="tspan208"
                             y="0"
                             x="0">l</tspan></text>
</g><g
                         transform="translate(-61.68,-114.77)"
                         id="g210" /></g></g></g></g></g><path
               id="path212"
               style="fill:none;stroke:#000000;stroke-width:0.3985;stroke-linecap:butt;stroke-linejoin:miter;stroke-miterlimit:10;stroke-dasharray:none;stroke-opacity:1"
               d="m 155.90744,85.04042 0,-14.1734 0,-4.98138" /><g
               id="g214" /><path
               id="path216"
               style="fill:none;stroke:#000000;stroke-width:0.3985;stroke-linecap:butt;stroke-linejoin:miter;stroke-miterlimit:10;stroke-dasharray:none;stroke-opacity:1"
               d="m 184.25424,85.04042 0,-14.1734 0,-4.98138" /><g
               id="g218" /><g
               id="g220"><path
                 id="path222"
                 style="fill:none;stroke:#000000;stroke-width:0.3985;stroke-linecap:butt;stroke-linejoin:miter;stroke-miterlimit:10;stroke-dasharray:none;stroke-opacity:1"
                 d="m 159.49399,70.86702 21.17372,0" /><g
                 transform="matrix(-1,0,0,-1,159.49399,70.86702)"
                 id="g224"><g
                   id="g226"><path
                     id="path228"
                     style="fill:#000000;fill-opacity:1;fill-rule:nonzero;stroke:none"
                     d="M 3.58653,0 C 2.52383,0.19925 0.797,0.797 -0.3985,1.49438 l 0,-2.98876 C 0.797,-0.797 2.52383,-0.19925 3.58653,0" /></g></g><g
                 transform="translate(180.66771,70.86702)"
                 id="g230"><g
                   id="g232"><path
                     id="path234"
                     style="fill:#000000;fill-opacity:1;fill-rule:nonzero;stroke:none"
                     d="M 3.58653,0 C 2.52383,0.19925 0.797,0.797 -0.3985,1.49438 l 0,-2.98876 C 0.797,-0.797 2.52383,-0.19925 3.58653,0" /></g></g><g
                 id="g236"><g
                   id="g238"><path
                     id="path240"
                     style="fill:#ffffff;fill-opacity:1;fill-rule:nonzero;stroke:none"
                     d="m 154.12585,62.73569 31.90994,0 0,16.26268 -31.90994,0 0,-16.26268 z" /></g><g
                   id="g242"><g
                     transform="scale(-1,-1)"
                     id="g244"><g
                       id="g246" /><g
                       transform="matrix(-1,0,0,-1,-61.68,-114.77)"
                       id="g248"><g
                         id="g250" /><g
                         transform="translate(157.45,68.52)"
                         id="g252"><g
                           id="g254"><path
                             id="path256"
                             style="fill:none;stroke:#000000;stroke-width:0.398;stroke-linecap:butt;stroke-linejoin:miter;stroke-miterlimit:10;stroke-dasharray:none;stroke-opacity:1"
                             d="m -61.68,-109.08 9.48,0" /></g><text
                           id="text258"
                           style="font-style:italic;font-variant:normal;font-weight:normal;font-size:9.9630003px;font-family:CMMI10;-inkscape-font-specification:CMMI10;writing-mode:lr-tb;fill:#000000;fill-opacity:1;fill-rule:nonzero;stroke:none"
                           transform="matrix(1,0,0,-1,-61.68,-114.77)"><tspan
                             id="tspan260"
                             y="0"
                             x="0">v</tspan></text>
<text
                           id="text262"
                           style="font-style:italic;font-variant:normal;font-weight:normal;font-size:6.98600006px;font-family:CMMI7;-inkscape-font-specification:CMMI7;writing-mode:lr-tb;fill:#000000;fill-opacity:1;fill-rule:nonzero;stroke:none"
                           transform="matrix(1,0,0,-1,-56.85,-117.23)"><tspan
                             id="tspan264"
                             y="0"
                             x="0">d</tspan></text>
<text
                           id="text266"
                           style="font-variant:normal;font-weight:normal;font-size:9.9630003px;font-family:Arial;-inkscape-font-specification:ArialMT;writing-mode:lr-tb;fill:#000000;fill-opacity:1;fill-rule:nonzero;stroke:none"
                           transform="matrix(1,0,0,-1,-49.99,-114.77)"><tspan
                             id="tspan268"
                             y="0"
                             x="0 8.0301781">×1</tspan></text>
</g><g
                         transform="translate(-61.68,-114.77)"
                         id="g270" /></g></g></g></g></g><path
               id="path272"
               style="fill:none;stroke:#000000;stroke-width:0.3985;stroke-linecap:butt;stroke-linejoin:miter;stroke-miterlimit:10;stroke-dasharray:none;stroke-opacity:1"
               d="m 170.08086,120.47392 4.98138,0 4.98138,0" /><g
               id="g274" /><g
               id="g276"><path
                 id="path278"
                 style="fill:none;stroke:#000000;stroke-width:0.70864999;stroke-linecap:butt;stroke-linejoin:miter;stroke-miterlimit:10;stroke-dasharray:none;stroke-opacity:1"
                 d="m 0,120.47392 56.04147,0" /><g
                 transform="translate(56.04147,120.47392)"
                 id="g280"><g
                   id="g282"><path
                     id="path284"
                     style="fill:none;stroke:#000000;stroke-width:0.56691003;stroke-linecap:round;stroke-linejoin:round;stroke-miterlimit:10;stroke-dasharray:none;stroke-opacity:1"
                     d="M -1.47461,1.96616 C -1.35172,1.22885 0,0.12286 0.36864,0 0,-0.12286 -1.35172,-1.22885 -1.47461,-1.96616" /></g></g><g
                 id="g286"><g
                   id="g288"><g
                     transform="scale(-1,-1)"
                     id="g290"><g
                       id="g292" /><g
                       transform="matrix(-1,0,0,-1,-61.68,-114.77)"
                       id="g294"><g
                         id="g296" /><g
                         transform="translate(25.11,124.15)"
                         id="g298"><text
                           id="text300"
                           style="font-style:italic;font-variant:normal;font-weight:normal;font-size:9.9630003px;font-family:CMMI10;-inkscape-font-specification:CMMI10;writing-mode:lr-tb;fill:#000000;fill-opacity:1;fill-rule:nonzero;stroke:none"
                           transform="matrix(1,0,0,-1,-61.68,-114.77)"><tspan
                             id="tspan302"
                             y="0"
                             x="0">J</tspan></text>
</g><g
                         transform="translate(-61.68,-114.77)"
                         id="g304" /></g></g></g></g></g><g
               id="g306"><path
                 id="path308"
                 style="fill:none;stroke:#000000;stroke-width:0.70864999;stroke-linecap:butt;stroke-linejoin:miter;stroke-miterlimit:10;stroke-dasharray:none;stroke-opacity:1"
                 d="m 155.90744,120.47392 27.69467,0" /><g
                 transform="translate(183.60211,120.47392)"
                 id="g310"><g
                   id="g312"><path
                     id="path314"
                     style="fill:none;stroke:#000000;stroke-width:0.56691003;stroke-linecap:round;stroke-linejoin:round;stroke-miterlimit:10;stroke-dasharray:none;stroke-opacity:1"
                     d="M -1.47461,1.96616 C -1.35172,1.22885 0,0.12286 0.36864,0 0,-0.12286 -1.35172,-1.22885 -1.47461,-1.96616" /></g></g><g
                 id="g316"><g
                   id="g318"><g
                     transform="scale(-1,-1)"
                     id="g320"><g
                       id="g322" /><g
                       transform="matrix(-1,0,0,-1,-61.68,-114.77)"
                       id="g324"><g
                         id="g326" /><g
                         transform="translate(167.03,124.27)"
                         id="g328"><text
                           id="text330"
                           style="font-variant:normal;font-size:9.9630003px;font-family:'Latin Modern Math';-inkscape-font-specification:LatinModernMath-Regular-Identity-H;writing-mode:lr-tb;fill:#000000;fill-opacity:1;fill-rule:nonzero;stroke:none"
                           transform="matrix(1,0,0,-1,-61.68,-114.77)"><tspan
                             id="tspan332"
                             y="0"
                             x="0">ℰ</tspan></text>
</g><g
                         transform="translate(-61.68,-114.77)"
                         id="g334" /></g></g></g></g></g></g></g></g></g></g></svg>